# xmcd
#
# Track frame offsets: 
#        150
#        17272
#        31929
#        46930
#        58967
#        75027
#        85777
#        100131
#        113512
#        131740
#        143749
#        165081
#        180687
#        194309
#        210362
#        221930
#
# Disc length: 3154 seconds
#
# Revision: 0
# Processed by: cddbd v1.5.2PL0 Copyright (c) Steve Scherf et al.
# Submitted via: ExactAudioCopy v0.99pb5
#
DISCID=c30c5010
DTITLE=Dark Hollow Bluegrass Band - Making Plans
DYEAR=2008
DGENRE=Bluegrass
TTITLE0=Girl From The North Country
TTITLE1=Honey, You Don't Know My Mind
TTITLE2=Julie Anne
TTITLE3=Losing You
TTITLE4=Making Plans
TTITLE5=One Tear
TTITLE6=I'm So Afraid Of Losing You Again
TTITLE7=Last Song
TTITLE8=Walk The Way The Wind Blows
TTITLE9=Cry Now Lonesome Heart
TTITLE10=Dark Hallow
TTITLE11=I Only Exist
TTITLE12=Next Sunday Is My Birthday
TTITLE13=All I Ever Loved Was You
TTITLE14=Chances Are
TTITLE15=The In Crowd
EXTD=
EXTT0=
EXTT1=
EXTT2=
EXTT3=
EXTT4=
EXTT5=
EXTT6=
EXTT7=
EXTT8=
EXTT9=
EXTT10=
EXTT11=
EXTT12=
EXTT13=
EXTT14=
EXTT15=
PLAYORDER=
